<svg width="0" height="0" class="hidden">
  <symbol enable-background="new 0 0 64 64" version="1.1" xml:space="preserve" xmlns="http://www.w3.org/2000/svg" xmlns:xlink="http://www.w3.org/1999/xlink" viewBox="0 0 64 64" id="car">
    <g id="row_4"></g>
    <g id="row_3">
      <g id="deliver">
        <g>
          <path d="M53,43c-4.4,0-8,3.6-8,8s3.6,8,8,8s8-3.6,8-8S57.4,43,53,43z M53,55c-2.2,0-4-1.8-4-4c0-2.2,1.8-4,4-4     s4,1.8,4,4C57,53.2,55.2,55,53,55z" fill="#263238"></path>
          <path d="M54,51c0-0.5-0.5-1-1-1s-1,0.5-1,1s0.5,1,1,1S54,51.5,54,51z M53,47c2.2,0,4,1.8,4,4s-1.8,4-4,4     s-4-1.8-4-4S50.8,47,53,47z" fill="#80DEEA"></path>
          <path d="M53,55.5c-2.5,0-4.5-2-4.5-4.5s2-4.5,4.5-4.5s4.5,2,4.5,4.5S55.5,55.5,53,55.5z M53,47.5     c-1.9,0-3.5,1.6-3.5,3.5s1.6,3.5,3.5,3.5s3.5-1.6,3.5-3.5S54.9,47.5,53,47.5z" fill="#FFFFFF"></path>
          <circle cx="53" cy="51" fill="#263238" r="2"></circle>
        </g>
        <g>
          <path d="M17.8,49.2l-0.1,0c-0.9,0-1.7-0.1-2.3-0.1c-0.3,0-0.6,0-0.9-0.1c0.3,0.6,0.6,1.3,0.6,2c0,2.2-1.8,4-4,4     s-4-1.8-4-4c0-1.1,0.4-2,1.1-2.8c-0.9-0.2-1.6-0.3-2.2-0.4L6,47.6v-0.3l0,0H5l-0.7-0.7L4,46.9v0.1c-0.7,1.2-1,2.6-1,3.9     c0,4.4,3.6,8,8,8s8-3.6,8-8c0-0.7-0.1-1.3-0.3-2.1L17.8,49.2z" fill="#263238"></path>
          <path d="M12,51c0-0.5-0.5-1-1-1c-0.6,0-1,0.5-1,1s0.4,1,1,1C11.6,52,12,51.5,12,51z M14.4,49     c0.4,0.6,0.6,1.3,0.6,2c0,2.2-1.8,4-4,4s-4-1.8-4-4c0-1.1,0.4-2,1.1-2.8C9.7,48.5,11.8,48.8,14.4,49z" fill="#80DEEA"></path>
          <path d="M11,55.5c-2.5,0-4.5-2-4.5-4.5c0-1.2,0.4-2.3,1.3-3.1l0.7,0.7c-0.6,0.7-1,1.5-1,2.4     c0,1.9,1.6,3.5,3.5,3.5s3.5-1.6,3.5-3.5c0-0.6-0.2-1.2-0.5-1.8l0.9-0.5c0.4,0.7,0.6,1.5,0.6,2.3C15.5,53.5,13.5,55.5,11,55.5z" fill="#FFFFFF"></path>
          <circle cx="11" cy="51" fill="#263238" r="2"></circle>
        </g>
        <g>
          <path d="M60.3,38.5l0-7c1.4,0,2.5,1.6,2.5,3.5C62.8,36.9,61.6,38.4,60.3,38.5z" fill="#FFF59D"></path>
          <path d="M60.7,32c0-0.2,0-0.3,0-0.5l0-0.3c-0.1-1.1-0.9-1.9-1.9-2.2l-1.9-0.4l-0.2,1l0.3,0.1l1.2,3.9     c0.6,2.1,0.9,4.3,0.9,6.5h0v0.5c0.9,0,1.5-0.8,1.8-2.4C61,36.3,60.9,33.8,60.7,32z"></path>
          <path d="M4.3,30v-0.5l0,0h0V29h-2c-1,0-1.8,0.8-1.8,1.8v2.4c0,1,0.8,1.8,1.8,1.8h1.8v-0.5L4.3,30L4.3,30z" fill="#FF1744"></path>
        </g>
        <path d="M48.3,42.9L3,42c0,1.3,0.1,2.5,0.2,3.5l0,0.4c0.1,0.9,0.5,1.7,1.2,2.2c0.4,0.3,0.8,0.5,1.3,0.6    c0.7,0.2,1.5,0.3,2.3,0.5c2,0.4,4.1,0.6,6.4,0.8c0.3,0,0.6,0.1,1,0.1l28.1,1.6c0.1,0,0.1,0,0.2,0c1.2,0,2.3-0.7,2.9-1.8l2.2-4.5    c0.3-0.6,1.5-1.3,2.4-1.3v-2C50.2,42,49.2,42.4,48.3,42.9z"></path>
        <path d="M59.9,40c0.1-2.3-0.2-4.6-0.9-6.8l-1.4-4.5c-0.2-0.8-0.9-1.3-1.6-1.5c-1-0.2-4.3-0.8-7.1-0.8l-0.6,1    c0.7,1.2,0.2,1.8-0.7,1.8l-35.9-1c-1,0-1.9,0.1-2.8,0.5L8.1,29c-0.6,0.2-1.3,0.2-1.9-0.2l-0.1-0.1c-0.5-0.3-1.1-0.4-1.6-0.5h-1    c-0.2,0.6-0.2,0.9-0.2,1.2L3,37.1c0,0.6,0,1.3-0.1,1.9c0,0,2,0,2,0l54,1L59.9,40z"></path>
        <path d="M49.8,40.5l1.3,0l0-1l-43.7-1l0,1l1.3,0c0.4,0.3,0.7,0.6,0.7,1c0,0.4-0.3,0.8-0.7,1l-1.2,0l0,1l43.6,1l0-1    l-1.4,0c-0.4-0.3-0.7-0.6-0.7-1C49,41.1,49.4,40.7,49.8,40.5z" fill="#64B5F6"></path>
        <g>
          <path d="M1.5,40.5c0,1.4,0.9,2.5,2,2.5h4c0.9,0,2.8-0.9,3-2.4L1.5,40.5L1.5,40.5z" fill="#8D6E63"></path>
          <path d="M7.5,38h-4c-1.1,0-2,1.1-2,2.5l9,0.1c0-0.1,0-0.1,0-0.1C10.5,38.9,8.4,38,7.5,38z" fill="#E0F7FA"></path>
          <path d="M59.9,39h-8.7c-0.9,0-2.9,0.8-3.1,2.3l14,0.2C62,40.1,61.1,39,59.9,39z" fill="#E0F7FA"></path>
          <path d="M48,41.3c0,0.1,0,0.1,0,0.2c0,1.6,2.2,2.4,3.1,2.5l8.9,0c1.2,0,2.1-1.1,2.1-2.5v0L48,41.3z" fill="#8D6E63"></path>
        </g>
        <path d="M48.9,26.5l-11-17.3c-0.2-0.4-0.5-0.7-0.7-0.9c-1.7-2.1-4.1-3.3-6.7-3.6c-3.3-0.3-8.1-0.7-11.8-0.7    c-2.3,0-5.1,0.2-8.3,0.6c-2.2,0.3-4,1.9-4.6,4c0,0,0,0,0,0C5.7,9.3,6,10,6.6,10.3l0,0.2H7c1.2,0,2.1,1,2,2.2l-0.7,8.9    c0,0.5-0.5,0.9-1,0.9H5.7l0,0.3c-0.6,0.3-1.1,1-1.1,1.7l-0.1,1.6c0,0.4-0.2,0.8-0.4,1.1c-0.1,0.2-0.3,0.4-0.4,0.7l0,0.1    c0,0.1-0.1,0.2-0.1,0.3h1c0.5,0,1.1,0.2,1.6,0.5l0.1,0.1c0.6,0.3,1.3,0.4,1.9,0.2l0.8-0.3c0.9-0.3,1.9-0.5,2.8-0.5l35.9,1    c1,0,1.4-0.6,0.7-1.8L48.9,26.5z M40.9,26h-4.1h-5.2H14.9c-1.1,0-2.1-0.9-2.1-2l-0.6-9.5L12,12.3C11.9,11,12.9,10,14.2,10h16.6    c1.5,0,2.9,0.8,3.7,2.1l1.5,2.4l3.6,6l2.3,3.9C42.3,25.1,41.8,26,40.9,26z"></path>
        <g>
          <path d="M41.9,24.4l-6-9.9V14H12.2v1h0l0.6,9c0.1,1.1,1,2,2.1,2h26C41.8,26,42.3,25.1,41.9,24.4z" fill="#80CBC4"></path>
          <path d="M7,10.5c1.2,0,2.1,1,2,2.2l-0.7,8.9c0,0.5-0.5,0.9-1,0.9H5.7l1-12H7z" fill="#80CBC4"></path>
        </g>
        <polygon fill="#E0F2F1" points="13.8,14 18.4,26 25.4,26 19.9,14   "></polygon>
        <polygon fill="#E0F2F1" points="23.8,14 28.8,26 31.3,26 26.1,14   "></polygon>
        <g>
          <rect fill="#00838F" height="3" transform="matrix(0.8185 -0.5745 0.5745 0.8185 -7.6993 25.1781)" width="2" x="35" y="23.3"></rect>
          <rect fill="#00838F" height="1" transform="matrix(0.8201 -0.5722 0.5722 0.8201 -6.9182 24.5213)" width="9.6" x="30.8" y="22.8"></rect>
        </g>
        <g>
          <path d="M40.9,27h-26c-1.6,0-3-1.3-3.1-2.9L11,12.3c-0.1-0.9,0.3-1.7,0.8-2.3c0.6-0.6,1.4-1,2.3-1h16.6     c1.8,0,3.6,1,4.5,2.5l7.5,12.3c0.4,0.7,0.4,1.4,0,2.1C42.4,26.6,41.7,27,40.9,27z M14.2,11c-0.3,0-0.6,0.1-0.8,0.4     c-0.2,0.2-0.3,0.5-0.3,0.8l0.8,11.7c0,0.6,0.5,1.1,1.2,1.1h26c0,0,0.1,0,0.1,0l-7.5-12.4c-0.6-1-1.7-1.6-2.8-1.6H14.2z" fill="#263238"></path>
          <path d="M7.2,23H5.7c-0.7,0-0.7-1,0-1h1.6c0.3,0,0.5-0.2,0.5-0.5l0.7-8.9c0-0.4-0.1-0.8-0.4-1.1     C7.8,11.2,7.4,11,7,11H6.6c-0.7,0-0.7-1,0-1H7c0.7,0,1.4,0.3,1.8,0.8c0.5,0.5,0.7,1.2,0.7,1.9l-0.7,8.9C8.7,22.4,8,23,7.2,23z" fill="#263238"></path>
        </g>
        <g>
          <path d="M35.9,31.5C22.6,30.8,6.7,31,6.6,31c-1.2,0-1.2-1.1,0-1.1c0.2,0,12.3-1,25.6-0.4c1.8,0.1,6.3,0.3,7.8,0.3     c9.7,0.4,14.9,0.2,17,4.1l-0.4,1.4c-2.5-2.5-6.4-3.3-15.7-3.7C39.3,31.6,37.7,31.5,35.9,31.5z" fill="#E3F2FD"></path>
        </g>
        <path d="M50.2,23.4l0.2-1l-1.5-0.3l-0.2,1l0.2,0c0.3,0.5,0.4,1,0.3,1.4c-0.2,0.6-0.9,0.8-1.1,0.9l-1.8-0.3    c-0.7-0.1-0.9,0.9-0.2,1l2,0.4l0.1,0c0.1,0,1.5-0.4,1.9-1.6c0.2-0.5,0.2-1,0-1.5L50.2,23.4z"></path>
        <path d="M48.1,25C48.1,25,48.1,25,48.1,25c-0.4-0.1-0.5-0.3-0.5-0.6l0.7-4c0-0.3,0.3-0.5,0.6-0.4    c0.3,0,0.5,0.3,0.4,0.6l-0.7,4C48.6,24.9,48.4,25,48.1,25z" fill="#263238"></path>
      </g>
    </g>
    <g id="row_2"></g>
    <g id="row_1"></g>
  </symbol>
  <symbol version="1.1" id="finish" xmlns="http://www.w3.org/2000/svg" xmlns:xlink="http://www.w3.org/1999/xlink" x="0px" y="0px" xml:space="preserve" viewBox="0 0 512 512" fill="#FFF59D">
    <path d="M160,132.267c-28.8,0-58.667-3.2-87.467-10.667c0-25.6,0-51.2,0-76.8 c28.8,7.467,58.667,10.667,87.467,10.667C160,81.067,160,106.667,160,132.267z" fill="#FFF59D"></path>
    <g>
      <path d="M248.533,126.933c-28.8,3.2-58.667,5.333-87.467,5.333c0-25.6,0-51.2,0-76.8 c28.8,0,58.667-2.133,87.467-5.333C248.533,75.733,248.533,101.333,248.533,126.933z" fill="#FFF59D"></path>
      <path d="M424.533,110.933c-28.8,0-58.667,2.133-87.467,5.333c0-25.6,0-51.2,0-76.8 c28.8-3.2,58.667-5.333,87.467-5.333C424.533,59.733,424.533,85.333,424.533,110.933z" fill="#FFF59D"></path>
    </g>
    <path d="M512,121.6c-28.8-7.467-58.667-10.667-87.467-10.667c0-25.6,0-51.2,0-76.8 c28.8,0,58.667,3.2,87.467,10.667C512,70.4,512,96,512,121.6z" fill="#FFF59D"></path>
    <path d="M160,209.067c-28.8,0-58.667-3.2-87.467-10.667c0-25.6,0-51.2,0-76.8 c28.8,7.467,58.667,10.667,87.467,10.667C160,157.867,160,183.467,160,209.067z" fill="#FFF59D"></path>
    <g>
      <path d="M248.533,203.733c-28.8,3.2-58.667,5.333-87.467,5.333c0-25.6,0-51.2,0-76.8 c28.8,0,58.667-2.133,87.467-5.333C248.533,152.533,248.533,178.133,248.533,203.733z"></path>
      <path d="M424.533,187.733c-28.8,0-58.667,2.133-87.467,5.333c0-25.6,0-51.2,0-76.8 c28.8-3.2,58.667-5.333,87.467-5.333C424.533,136.533,424.533,162.133,424.533,187.733z"></path>
    </g>
    <path d="M512,198.4c-28.8-7.467-58.667-10.667-87.467-10.667c0-25.6,0-51.2,0-76.8 c28.8,0,58.667,3.2,87.467,10.667C512,147.2,512,172.8,512,198.4z"></path>
    <path d="M160,285.867c-28.8,0-58.667-3.2-87.467-10.667c0-25.6,0-51.2,0-76.8 c28.8,7.467,58.667,10.667,87.467,10.667C160,234.667,160,260.267,160,285.867z"></path>
    <g>
      <path d="M248.533,280.533c-28.8,3.2-58.667,5.333-87.467,5.333c0-25.6,0-51.2,0-76.8 c28.8,0,58.667-2.133,87.467-5.333C248.533,229.333,248.533,254.933,248.533,280.533z"></path>
      <path d="M424.533,264.533c-28.8,0-58.667,2.133-87.467,5.333c0-25.6,0-51.2,0-76.8 c28.8-3.2,58.667-5.333,87.467-5.333C424.533,213.333,424.533,238.933,424.533,264.533z"></path>
    </g>
    <g>
      <path d="M512,275.2c-28.8-7.467-58.667-10.667-87.467-10.667c0-25.6,0-51.2,0-76.8 c28.8,0,58.667,3.2,87.467,10.667C512,224,512,249.6,512,275.2z"></path>
      <path d="M336,116.267c-28.8,3.2-58.667,7.467-87.467,10.667c0-25.6,0-51.2,0-76.8 c28.8-3.2,58.667-7.467,87.467-10.667C336,65.067,336,90.667,336,116.267z"></path>
    </g>
    <path d="M336,193.067c-28.8,3.2-58.667,7.467-87.467,10.667c0-25.6,0-51.2,0-76.8 c28.8-3.2,58.667-7.467,87.467-10.667C336,141.867,336,167.467,336,193.067z"></path>
    <path d="M336,269.867c-28.8,3.2-58.667,7.467-87.467,10.667c0-25.6,0-51.2,0-76.8 c28.8-3.2,58.667-7.467,87.467-10.667C336,218.667,336,244.267,336,269.867z"></path>
    <path d="M160,362.667c-28.8,0-58.667-3.2-87.467-10.667c0-25.6,0-51.2,0-76.8 c28.8,7.467,58.667,10.667,87.467,10.667C160,311.467,160,337.067,160,362.667z"></path>
    <path d="M248.533,357.333c-29.867,3.2-58.667,5.333-88.533,5.333c0-25.6,0-51.2,0-76.8 c28.8,0,58.667-2.133,87.467-5.333C248.533,306.133,248.533,331.733,248.533,357.333z"></path>
    <path d="M336,346.667c-28.8,3.2-58.667,7.467-87.467,10.667c0-25.6,0-51.2,0-76.8 c28.8-3.2,58.667-7.467,87.467-10.667C336,295.467,336,321.067,336,346.667z"></path>
    <path d="M424.533,341.333c-28.8,0-58.667,2.133-87.467,5.333c0-25.6,0-51.2,0-76.8 c28.8-3.2,58.667-5.333,87.467-5.333C424.533,290.133,424.533,315.733,424.533,341.333z"></path>
    <path d="M512,352c-28.8-7.467-58.667-10.667-87.467-10.667c0-25.6,0-51.2,0-76.8 c28.8,0,58.667,3.2,87.467,10.667C512,300.8,512,326.4,512,352z"></path>
    <path d="M36.267,0C16,0,0,16,0,36.267V512h72.533V36.267C72.533,16,56.533,0,36.267,0z"></path>
  </symbol>
</svg>